{
    "S5xW3eigjew": {
        "length": "Short (1:04)",
        "popularity": "High (309K)",
        "channel_size": "Small (94 - Ramon Alcantara)",
        "url": "https://www.youtube.com/watch?v=S5xW3eigjew",
        "metadata": {
            "streams": [
                {
                    "index": 0,
                    "codec_name": "vp9",
                    "codec_long_name": "Google VP9",
                    "profile": "Profile 0",
                    "codec_type": "video",
                    "codec_tag_string": "vp09",
                    "codec_tag": "0x39307076",
                    "width": 1280,
                    "height": 720,
                    "coded_width": 1280,
                    "coded_height": 720,
                    "closed_captions": 0,
                    "has_b_frames": 0,
                    "sample_aspect_ratio": "1:1",
                    "display_aspect_ratio": "16:9",
                    "pix_fmt": "yuv420p",
                    "level": -99,
                    "color_range": "tv",
                    "color_space": "bt709",
                    "color_transfer": "bt709",
                    "color_primaries": "bt709",
                    "refs": 1,
                    "r_frame_rate": "24000/1001",
                    "avg_frame_rate": "510000/21271",
                    "time_base": "1/16000",
                    "start_pts": 0,
                    "start_time": "0.000000",
                    "duration_ts": 1021008,
                    "duration": "63.813000",
                    "bit_rate": "571868",
                    "nb_frames": "1530",
                    "disposition": {
                        "default": 1,
                        "dub": 0,
                        "original": 0,
                        "comment": 0,
                        "lyrics": 0,
                        "karaoke": 0,
                        "forced": 0,
                        "hearing_impaired": 0,
                        "visual_impaired": 0,
                        "clean_effects": 0,
                        "attached_pic": 0,
                        "timed_thumbnails": 0
                    },
                    "tags": {
                        "language": "eng",
                        "handler_name": "VideoHandler",
                        "vendor_id": "[0][0][0][0]"
                    }
                },
                {
                    "index": 1,
                    "codec_name": "opus",
                    "codec_long_name": "Opus (Opus Interactive Audio Codec)",
                    "codec_type": "audio",
                    "codec_tag_string": "Opus",
                    "codec_tag": "0x7375704f",
                    "sample_fmt": "fltp",
                    "sample_rate": "48000",
                    "channels": 2,
                    "channel_layout": "stereo",
                    "bits_per_sample": 0,
                    "r_frame_rate": "0/0",
                    "avg_frame_rate": "0/0",
                    "time_base": "1/48000",
                    "start_pts": 0,
                    "start_time": "0.000000",
                    "duration_ts": 3064368,
                    "duration": "63.841000",
                    "bit_rate": "125465",
                    "nb_frames": "3192",
                    "disposition": {
                        "default": 1,
                        "dub": 0,
                        "original": 0,
                        "comment": 0,
                        "lyrics": 0,
                        "karaoke": 0,
                        "forced": 0,
                        "hearing_impaired": 0,
                        "visual_impaired": 0,
                        "clean_effects": 0,
                        "attached_pic": 0,
                        "timed_thumbnails": 0
                    },
                    "tags": {
                        "language": "eng",
                        "handler_name": "SoundHandler",
                        "vendor_id": "[0][0][0][0]"
                    }
                }
            ],
            "format": {
                "filename": "data/downloads/S5xW3eigjew.mp4",
                "nb_streams": 2,
                "nb_programs": 0,
                "format_name": "mov,mp4,m4a,3gp,3g2,mj2",
                "format_long_name": "QuickTime / MOV",
                "start_time": "0.000000",
                "duration": "63.841000",
                "size": "5605675",
                "bit_rate": "702454",
                "probe_score": 100,
                "tags": {
                    "major_brand": "isom",
                    "minor_version": "512",
                    "compatible_brands": "isomiso2mp41",
                    "encoder": "Lavf58.76.100"
                }
            }
        },
        "other_info": {
            "video_views": 310577,
            "channel_name": "Ramon Alcantara",
            "video_title": "One Piece Epic Sad Moment   Franky VS Senor Pink's Respectful Ending",
            "avg_rating": null
        }
    },
    "0e4I7sQXxsQ": {
        "length": "Short (2:59)",
        "popularity": "High (146k)",
        "channel_size": "Large (116K - Lisa Remillard)",
        "url": "https://www.youtube.com/watch?v=0e4I7sQXxsQ",
        "metadata": {
            "streams": [
                {
                    "index": 0,
                    "codec_name": "vp9",
                    "codec_long_name": "Google VP9",
                    "profile": "Profile 0",
                    "codec_type": "video",
                    "codec_tag_string": "vp09",
                    "codec_tag": "0x39307076",
                    "width": 1080,
                    "height": 1920,
                    "coded_width": 1080,
                    "coded_height": 1920,
                    "closed_captions": 0,
                    "has_b_frames": 0,
                    "pix_fmt": "yuv420p",
                    "level": -99,
                    "color_range": "tv",
                    "color_space": "bt709",
                    "color_transfer": "bt709",
                    "color_primaries": "bt709",
                    "refs": 1,
                    "r_frame_rate": "30/1",
                    "avg_frame_rate": "17164800/572161",
                    "time_base": "1/16000",
                    "start_pts": 0,
                    "start_time": "0.000000",
                    "duration_ts": 2860805,
                    "duration": "178.800312",
                    "bit_rate": "2984010",
                    "nb_frames": "5364",
                    "disposition": {
                        "default": 1,
                        "dub": 0,
                        "original": 0,
                        "comment": 0,
                        "lyrics": 0,
                        "karaoke": 0,
                        "forced": 0,
                        "hearing_impaired": 0,
                        "visual_impaired": 0,
                        "clean_effects": 0,
                        "attached_pic": 0,
                        "timed_thumbnails": 0
                    },
                    "tags": {
                        "language": "und",
                        "handler_name": "ISO Media file produced by Google Inc. Created on: 05/01/2025.",
                        "vendor_id": "[0][0][0][0]"
                    }
                },
                {
                    "index": 1,
                    "codec_name": "opus",
                    "codec_long_name": "Opus (Opus Interactive Audio Codec)",
                    "codec_type": "audio",
                    "codec_tag_string": "Opus",
                    "codec_tag": "0x7375704f",
                    "sample_fmt": "fltp",
                    "sample_rate": "48000",
                    "channels": 2,
                    "channel_layout": "stereo",
                    "bits_per_sample": 0,
                    "r_frame_rate": "0/0",
                    "avg_frame_rate": "0/0",
                    "time_base": "1/48000",
                    "start_pts": 0,
                    "start_time": "0.000000",
                    "duration_ts": 8584368,
                    "duration": "178.841000",
                    "bit_rate": "102248",
                    "nb_frames": "8942",
                    "disposition": {
                        "default": 1,
                        "dub": 0,
                        "original": 0,
                        "comment": 0,
                        "lyrics": 0,
                        "karaoke": 0,
                        "forced": 0,
                        "hearing_impaired": 0,
                        "visual_impaired": 0,
                        "clean_effects": 0,
                        "attached_pic": 0,
                        "timed_thumbnails": 0
                    },
                    "tags": {
                        "language": "eng",
                        "handler_name": "SoundHandler",
                        "vendor_id": "[0][0][0][0]"
                    }
                }
            ],
            "format": {
                "filename": "data/downloads/0e4I7sQXxsQ.mp4",
                "nb_streams": 2,
                "nb_programs": 0,
                "format_name": "mov,mp4,m4a,3gp,3g2,mj2",
                "format_long_name": "QuickTime / MOV",
                "start_time": "0.000000",
                "duration": "178.841000",
                "size": "69151752",
                "bit_rate": "3093328",
                "probe_score": 100,
                "tags": {
                    "major_brand": "isom",
                    "minor_version": "512",
                    "compatible_brands": "isomiso2mp41",
                    "encoder": "Lavf58.76.100"
                }
            }
        },
        "other_info": {
            "video_views": 146857,
            "channel_name": "Lisa Remillard",
            "video_title": "How did Trump already \"win\" the Nevada primary before Election Day tomorrow?",
            "avg_rating": null
        }
    },
    "7_LPdttKXPc": {
        "length": "Short (4:48)",
        "popularity": "High (4.4M)",
        "channel_size": "Medium (17.3K - Aaron)",
        "url": "https://www.youtube.com/watch?v=7_LPdttKXPc",
        "metadata": {
            "streams": [
                {
                    "index": 0,
                    "codec_name": "av1",
                    "codec_long_name": "Alliance for Open Media AV1",
                    "profile": "Main",
                    "codec_type": "video",
                    "codec_tag_string": "av01",
                    "codec_tag": "0x31307661",
                    "width": 640,
                    "height": 480,
                    "coded_width": 640,
                    "coded_height": 480,
                    "closed_captions": 0,
                    "has_b_frames": 0,
                    "sample_aspect_ratio": "1:1",
                    "display_aspect_ratio": "4:3",
                    "pix_fmt": "yuv420p",
                    "level": 4,
                    "color_range": "tv",
                    "color_space": "bt709",
                    "color_transfer": "bt709",
                    "color_primaries": "bt709",
                    "refs": 1,
                    "r_frame_rate": "30/1",
                    "avg_frame_rate": "30/1",
                    "time_base": "1/15360",
                    "start_pts": 0,
                    "start_time": "0.000000",
                    "duration_ts": 4410368,
                    "duration": "287.133333",
                    "bit_rate": "85281",
                    "nb_frames": "8614",
                    "disposition": {
                        "default": 1,
                        "dub": 0,
                        "original": 0,
                        "comment": 0,
                        "lyrics": 0,
                        "karaoke": 0,
                        "forced": 0,
                        "hearing_impaired": 0,
                        "visual_impaired": 0,
                        "clean_effects": 0,
                        "attached_pic": 0,
                        "timed_thumbnails": 0
                    },
                    "tags": {
                        "language": "und",
                        "handler_name": "ISO Media file produced by Google Inc.",
                        "vendor_id": "[0][0][0][0]"
                    }
                },
                {
                    "index": 1,
                    "codec_name": "opus",
                    "codec_long_name": "Opus (Opus Interactive Audio Codec)",
                    "codec_type": "audio",
                    "codec_tag_string": "Opus",
                    "codec_tag": "0x7375704f",
                    "sample_fmt": "fltp",
                    "sample_rate": "48000",
                    "channels": 2,
                    "channel_layout": "stereo",
                    "bits_per_sample": 0,
                    "r_frame_rate": "0/0",
                    "avg_frame_rate": "0/0",
                    "time_base": "1/48000",
                    "start_pts": 0,
                    "start_time": "0.000000",
                    "duration_ts": 13825968,
                    "duration": "288.041000",
                    "bit_rate": "105578",
                    "nb_frames": "14402",
                    "disposition": {
                        "default": 1,
                        "dub": 0,
                        "original": 0,
                        "comment": 0,
                        "lyrics": 0,
                        "karaoke": 0,
                        "forced": 0,
                        "hearing_impaired": 0,
                        "visual_impaired": 0,
                        "clean_effects": 0,
                        "attached_pic": 0,
                        "timed_thumbnails": 0
                    },
                    "tags": {
                        "language": "eng",
                        "handler_name": "SoundHandler",
                        "vendor_id": "[0][0][0][0]"
                    }
                }
            ],
            "format": {
                "filename": "data/downloads/7_LPdttKXPc.mp4",
                "nb_streams": 2,
                "nb_programs": 0,
                "format_name": "mov,mp4,m4a,3gp,3g2,mj2",
                "format_long_name": "QuickTime / MOV",
                "start_time": "0.000000",
                "duration": "288.041000",
                "size": "7093786",
                "bit_rate": "197021",
                "probe_score": 100,
                "tags": {
                    "major_brand": "isom",
                    "minor_version": "512",
                    "compatible_brands": "isomav01iso2mp41",
                    "encoder": "Lavf58.76.100"
                }
            }
        },
        "other_info": {
            "video_views": 4482391,
            "channel_name": "Aaron",
            "video_title": "How the Internet Works in 5 Minutes",
            "avg_rating": null
        }
    },
    "uvYCVjhuot8": {
        "length": "short (1:27)",
        "popularity": "Medium (34k)",
        "channel_size": "Medium (84.2k - RAPGAME)",
        "url": "https://www.youtube.com/watch?v=uvYCVjhuot8",
        "metadata": {
            "streams": [
                {
                    "index": 0,
                    "codec_name": "vp9",
                    "codec_long_name": "Google VP9",
                    "profile": "Profile 0",
                    "codec_type": "video",
                    "codec_tag_string": "vp09",
                    "codec_tag": "0x39307076",
                    "width": 1920,
                    "height": 1080,
                    "coded_width": 1920,
                    "coded_height": 1080,
                    "closed_captions": 0,
                    "has_b_frames": 0,
                    "sample_aspect_ratio": "1:1",
                    "display_aspect_ratio": "16:9",
                    "pix_fmt": "yuv420p",
                    "level": -99,
                    "color_range": "tv",
                    "color_space": "bt709",
                    "color_transfer": "bt709",
                    "color_primaries": "bt709",
                    "refs": 1,
                    "r_frame_rate": "24/1",
                    "avg_frame_rate": "2095000/87291",
                    "time_base": "1/16000",
                    "start_pts": 0,
                    "start_time": "0.000000",
                    "duration_ts": 1396656,
                    "duration": "87.291000",
                    "bit_rate": "1139310",
                    "nb_frames": "2095",
                    "disposition": {
                        "default": 1,
                        "dub": 0,
                        "original": 0,
                        "comment": 0,
                        "lyrics": 0,
                        "karaoke": 0,
                        "forced": 0,
                        "hearing_impaired": 0,
                        "visual_impaired": 0,
                        "clean_effects": 0,
                        "attached_pic": 0,
                        "timed_thumbnails": 0
                    },
                    "tags": {
                        "language": "eng",
                        "handler_name": "VideoHandler",
                        "vendor_id": "[0][0][0][0]"
                    }
                },
                {
                    "index": 1,
                    "codec_name": "opus",
                    "codec_long_name": "Opus (Opus Interactive Audio Codec)",
                    "codec_type": "audio",
                    "codec_tag_string": "Opus",
                    "codec_tag": "0x7375704f",
                    "sample_fmt": "fltp",
                    "sample_rate": "48000",
                    "channels": 2,
                    "channel_layout": "stereo",
                    "bits_per_sample": 0,
                    "r_frame_rate": "0/0",
                    "avg_frame_rate": "0/0",
                    "time_base": "1/48000",
                    "start_pts": 0,
                    "start_time": "0.000000",
                    "duration_ts": 4190448,
                    "duration": "87.301000",
                    "bit_rate": "116098",
                    "nb_frames": "4365",
                    "disposition": {
                        "default": 1,
                        "dub": 0,
                        "original": 0,
                        "comment": 0,
                        "lyrics": 0,
                        "karaoke": 0,
                        "forced": 0,
                        "hearing_impaired": 0,
                        "visual_impaired": 0,
                        "clean_effects": 0,
                        "attached_pic": 0,
                        "timed_thumbnails": 0
                    },
                    "tags": {
                        "language": "eng",
                        "handler_name": "SoundHandler",
                        "vendor_id": "[0][0][0][0]"
                    }
                }
            ],
            "format": {
                "filename": "data/downloads/uvYCVjhuot8.mp4",
                "nb_streams": 2,
                "nb_programs": 0,
                "format_name": "mov,mp4,m4a,3gp,3g2,mj2",
                "format_long_name": "QuickTime / MOV",
                "start_time": "0.000000",
                "duration": "87.301000",
                "size": "13757777",
                "bit_rate": "1260721",
                "probe_score": 100,
                "tags": {
                    "major_brand": "isom",
                    "minor_version": "512",
                    "compatible_brands": "isomiso2mp41",
                    "encoder": "Lavf58.76.100"
                }
            }
        },
        "other_info": {
            "video_views": 34459,
            "channel_name": "RAPGAME",
            "video_title": "Rappers & Basketball Legends React to Kendrick's Super Bowl",
            "avg_rating": null
        }
    },
    "OIHmV6Ai9eE": {
        "length": "Short (3:55)",
        "popularity": "Low (1.8K)",
        "channel_size": "Medium (17.3K - Aaron)",
        "url": "https://www.youtube.com/watch?v=OIHmV6Ai9eE",
        "metadata": {
            "streams": [
                {
                    "index": 0,
                    "codec_name": "h264",
                    "codec_long_name": "H.264 / AVC / MPEG-4 AVC / MPEG-4 part 10",
                    "profile": "High",
                    "codec_type": "video",
                    "codec_tag_string": "avc1",
                    "codec_tag": "0x31637661",
                    "width": 1920,
                    "height": 1080,
                    "coded_width": 1920,
                    "coded_height": 1080,
                    "closed_captions": 0,
                    "has_b_frames": 1,
                    "sample_aspect_ratio": "1:1",
                    "display_aspect_ratio": "16:9",
                    "pix_fmt": "yuv420p",
                    "level": 40,
                    "color_range": "tv",
                    "color_space": "bt709",
                    "color_transfer": "bt709",
                    "color_primaries": "bt709",
                    "chroma_location": "left",
                    "refs": 1,
                    "is_avc": "true",
                    "nal_length_size": "4",
                    "r_frame_rate": "24000/1001",
                    "avg_frame_rate": "24000/1001",
                    "time_base": "1/24000",
                    "start_pts": 0,
                    "start_time": "0.000000",
                    "duration_ts": 5637632,
                    "duration": "234.901333",
                    "bit_rate": "832776",
                    "bits_per_raw_sample": "8",
                    "nb_frames": "5632",
                    "disposition": {
                        "default": 1,
                        "dub": 0,
                        "original": 0,
                        "comment": 0,
                        "lyrics": 0,
                        "karaoke": 0,
                        "forced": 0,
                        "hearing_impaired": 0,
                        "visual_impaired": 0,
                        "clean_effects": 0,
                        "attached_pic": 0,
                        "timed_thumbnails": 0
                    },
                    "tags": {
                        "language": "und",
                        "handler_name": "ISO Media file produced by Google Inc.",
                        "vendor_id": "[0][0][0][0]"
                    }
                },
                {
                    "index": 1,
                    "codec_name": "opus",
                    "codec_long_name": "Opus (Opus Interactive Audio Codec)",
                    "codec_type": "audio",
                    "codec_tag_string": "Opus",
                    "codec_tag": "0x7375704f",
                    "sample_fmt": "fltp",
                    "sample_rate": "48000",
                    "channels": 2,
                    "channel_layout": "stereo",
                    "bits_per_sample": 0,
                    "r_frame_rate": "0/0",
                    "avg_frame_rate": "0/0",
                    "time_base": "1/48000",
                    "start_pts": 0,
                    "start_time": "0.000000",
                    "duration_ts": 11274288,
                    "duration": "234.881000",
                    "bit_rate": "133515",
                    "nb_frames": "11744",
                    "disposition": {
                        "default": 1,
                        "dub": 0,
                        "original": 0,
                        "comment": 0,
                        "lyrics": 0,
                        "karaoke": 0,
                        "forced": 0,
                        "hearing_impaired": 0,
                        "visual_impaired": 0,
                        "clean_effects": 0,
                        "attached_pic": 0,
                        "timed_thumbnails": 0
                    },
                    "tags": {
                        "language": "eng",
                        "handler_name": "SoundHandler",
                        "vendor_id": "[0][0][0][0]"
                    }
                }
            ],
            "format": {
                "filename": "data/downloads/OIHmV6Ai9eE.mp4",
                "nb_streams": 2,
                "nb_programs": 0,
                "format_name": "mov,mp4,m4a,3gp,3g2,mj2",
                "format_long_name": "QuickTime / MOV",
                "start_time": "0.000000",
                "duration": "234.902000",
                "size": "28518782",
                "bit_rate": "971257",
                "probe_score": 100,
                "tags": {
                    "major_brand": "isom",
                    "minor_version": "512",
                    "compatible_brands": "isomiso2avc1mp41",
                    "encoder": "Lavf58.76.100"
                }
            }
        },
        "other_info": {
            "video_views": 1829,
            "channel_name": "Aaron",
            "video_title": "Episode 1: Prepare for Disruptions, not Disasters",
            "avg_rating": null
        }
    },
    "AsZeXwbSNLI": {
        "length": "short (3:57)",
        "popularity": "Low (419)",
        "channel_size": "Medium - (11.4k - Matt Nye)",
        "url": "https://www.youtube.com/watch?v=AsZeXwbSNLI",
        "metadata": {
            "streams": [
                {
                    "index": 0,
                    "codec_name": "vp9",
                    "codec_long_name": "Google VP9",
                    "profile": "Profile 0",
                    "codec_type": "video",
                    "codec_tag_string": "vp09",
                    "codec_tag": "0x39307076",
                    "width": 640,
                    "height": 350,
                    "coded_width": 640,
                    "coded_height": 350,
                    "closed_captions": 0,
                    "has_b_frames": 0,
                    "sample_aspect_ratio": "1:1",
                    "display_aspect_ratio": "64:35",
                    "pix_fmt": "yuv420p",
                    "level": -99,
                    "color_range": "tv",
                    "color_space": "smpte170m",
                    "color_transfer": "bt709",
                    "color_primaries": "smpte170m",
                    "refs": 1,
                    "r_frame_rate": "30000/1001",
                    "avg_frame_rate": "2367000/78979",
                    "time_base": "1/16000",
                    "start_pts": 0,
                    "start_time": "0.000000",
                    "duration_ts": 3790992,
                    "duration": "236.937000",
                    "bit_rate": "368226",
                    "nb_frames": "7101",
                    "disposition": {
                        "default": 1,
                        "dub": 0,
                        "original": 0,
                        "comment": 0,
                        "lyrics": 0,
                        "karaoke": 0,
                        "forced": 0,
                        "hearing_impaired": 0,
                        "visual_impaired": 0,
                        "clean_effects": 0,
                        "attached_pic": 0,
                        "timed_thumbnails": 0
                    },
                    "tags": {
                        "language": "eng",
                        "handler_name": "VideoHandler",
                        "vendor_id": "[0][0][0][0]"
                    }
                },
                {
                    "index": 1,
                    "codec_name": "opus",
                    "codec_long_name": "Opus (Opus Interactive Audio Codec)",
                    "codec_type": "audio",
                    "codec_tag_string": "Opus",
                    "codec_tag": "0x7375704f",
                    "sample_fmt": "fltp",
                    "sample_rate": "48000",
                    "channels": 2,
                    "channel_layout": "stereo",
                    "bits_per_sample": 0,
                    "r_frame_rate": "0/0",
                    "avg_frame_rate": "0/0",
                    "time_base": "1/48000",
                    "start_pts": 0,
                    "start_time": "0.000000",
                    "duration_ts": 11374128,
                    "duration": "236.961000",
                    "bit_rate": "138209",
                    "nb_frames": "11848",
                    "disposition": {
                        "default": 1,
                        "dub": 0,
                        "original": 0,
                        "comment": 0,
                        "lyrics": 0,
                        "karaoke": 0,
                        "forced": 0,
                        "hearing_impaired": 0,
                        "visual_impaired": 0,
                        "clean_effects": 0,
                        "attached_pic": 0,
                        "timed_thumbnails": 0
                    },
                    "tags": {
                        "language": "eng",
                        "handler_name": "SoundHandler",
                        "vendor_id": "[0][0][0][0]"
                    }
                }
            ],
            "format": {
                "filename": "data/downloads/AsZeXwbSNLI.mp4",
                "nb_streams": 2,
                "nb_programs": 0,
                "format_name": "mov,mp4,m4a,3gp,3g2,mj2",
                "format_long_name": "QuickTime / MOV",
                "start_time": "0.000000",
                "duration": "236.961000",
                "size": "15232002",
                "bit_rate": "514245",
                "probe_score": 100,
                "tags": {
                    "major_brand": "isom",
                    "minor_version": "512",
                    "compatible_brands": "isomiso2mp41",
                    "encoder": "Lavf58.76.100"
                }
            }
        },
        "other_info": {
            "video_views": 448,
            "channel_name": "Matt Nye",
            "video_title": "Matt Nye - Get Up And Get To It (Feat.Randy Mcphly)",
            "avg_rating": null
        }
    },
    "DPn2-ce8wP0": {
        "length": "short (4:46)",
        "popularity": "Low (626)",
        "channel_size": "Small (398 - Looking for one piece)",
        "url": "https://www.youtube.com/watch?v=DPn2-ce8wP0",
        "metadata": {
            "streams": [
                {
                    "index": 0,
                    "codec_name": "vp9",
                    "codec_long_name": "Google VP9",
                    "profile": "Profile 0",
                    "codec_type": "video",
                    "codec_tag_string": "vp09",
                    "codec_tag": "0x39307076",
                    "width": 1920,
                    "height": 1080,
                    "coded_width": 1920,
                    "coded_height": 1080,
                    "closed_captions": 0,
                    "has_b_frames": 0,
                    "sample_aspect_ratio": "1:1",
                    "display_aspect_ratio": "16:9",
                    "pix_fmt": "yuv420p",
                    "level": -99,
                    "color_range": "tv",
                    "color_space": "bt709",
                    "color_transfer": "bt709",
                    "color_primaries": "bt709",
                    "refs": 1,
                    "r_frame_rate": "30/1",
                    "avg_frame_rate": "30/1",
                    "time_base": "1/16000",
                    "start_pts": 0,
                    "start_time": "0.000000",
                    "duration_ts": 4572800,
                    "duration": "285.800000",
                    "bit_rate": "892556",
                    "nb_frames": "8574",
                    "disposition": {
                        "default": 1,
                        "dub": 0,
                        "original": 0,
                        "comment": 0,
                        "lyrics": 0,
                        "karaoke": 0,
                        "forced": 0,
                        "hearing_impaired": 0,
                        "visual_impaired": 0,
                        "clean_effects": 0,
                        "attached_pic": 0,
                        "timed_thumbnails": 0
                    },
                    "tags": {
                        "language": "eng",
                        "handler_name": "VideoHandler",
                        "vendor_id": "[0][0][0][0]"
                    }
                },
                {
                    "index": 1,
                    "codec_name": "opus",
                    "codec_long_name": "Opus (Opus Interactive Audio Codec)",
                    "codec_type": "audio",
                    "codec_tag_string": "Opus",
                    "codec_tag": "0x7375704f",
                    "sample_fmt": "fltp",
                    "sample_rate": "48000",
                    "channels": 2,
                    "channel_layout": "stereo",
                    "bits_per_sample": 0,
                    "r_frame_rate": "0/0",
                    "avg_frame_rate": "0/0",
                    "time_base": "1/48000",
                    "start_pts": 0,
                    "start_time": "0.000000",
                    "duration_ts": 13721328,
                    "duration": "285.861000",
                    "bit_rate": "110625",
                    "nb_frames": "14293",
                    "disposition": {
                        "default": 1,
                        "dub": 0,
                        "original": 0,
                        "comment": 0,
                        "lyrics": 0,
                        "karaoke": 0,
                        "forced": 0,
                        "hearing_impaired": 0,
                        "visual_impaired": 0,
                        "clean_effects": 0,
                        "attached_pic": 0,
                        "timed_thumbnails": 0
                    },
                    "tags": {
                        "language": "eng",
                        "handler_name": "SoundHandler",
                        "vendor_id": "[0][0][0][0]"
                    }
                }
            ],
            "format": {
                "filename": "data/downloads/DPn2-ce8wP0.mp4",
                "nb_streams": 2,
                "nb_programs": 0,
                "format_name": "mov,mp4,m4a,3gp,3g2,mj2",
                "format_long_name": "QuickTime / MOV",
                "start_time": "0.000000",
                "duration": "285.861000",
                "size": "36115747",
                "bit_rate": "1010721",
                "probe_score": 100,
                "tags": {
                    "major_brand": "isom",
                    "minor_version": "512",
                    "compatible_brands": "isomiso2mp41",
                    "encoder": "Lavf58.76.100"
                }
            }
        },
        "other_info": {
            "video_views": 1903,
            "channel_name": "Looking for one piece",
            "video_title": "One Piece Episode 2",
            "avg_rating": null
        }
    },
    "Pfh9l0guTqQ": {
        "length": "Short (0:56)",
        "popularity": "Low (875)",
        "channel_size": "Large - (117K - UNITED States Air Force)",
        "url": "https://www.youtube.com/watch?v=Pfh9l0guTqQ",
        "metadata": {
            "streams": [
                {
                    "index": 0,
                    "codec_name": "vp9",
                    "codec_long_name": "Google VP9",
                    "profile": "Profile 0",
                    "codec_type": "video",
                    "codec_tag_string": "vp09",
                    "codec_tag": "0x39307076",
                    "width": 1920,
                    "height": 1080,
                    "coded_width": 1920,
                    "coded_height": 1080,
                    "closed_captions": 0,
                    "has_b_frames": 0,
                    "sample_aspect_ratio": "1:1",
                    "display_aspect_ratio": "16:9",
                    "pix_fmt": "yuv420p",
                    "level": -99,
                    "color_range": "tv",
                    "color_space": "bt709",
                    "color_transfer": "bt709",
                    "color_primaries": "bt709",
                    "refs": 1,
                    "r_frame_rate": "16/1",
                    "avg_frame_rate": "879000/54937",
                    "time_base": "1/16000",
                    "start_pts": 0,
                    "start_time": "0.000000",
                    "duration_ts": 878992,
                    "duration": "54.937000",
                    "bit_rate": "816473",
                    "nb_frames": "879",
                    "disposition": {
                        "default": 1,
                        "dub": 0,
                        "original": 0,
                        "comment": 0,
                        "lyrics": 0,
                        "karaoke": 0,
                        "forced": 0,
                        "hearing_impaired": 0,
                        "visual_impaired": 0,
                        "clean_effects": 0,
                        "attached_pic": 0,
                        "timed_thumbnails": 0
                    },
                    "tags": {
                        "language": "eng",
                        "handler_name": "VideoHandler",
                        "vendor_id": "[0][0][0][0]"
                    }
                },
                {
                    "index": 1,
                    "codec_name": "opus",
                    "codec_long_name": "Opus (Opus Interactive Audio Codec)",
                    "codec_type": "audio",
                    "codec_tag_string": "Opus",
                    "codec_tag": "0x7375704f",
                    "sample_fmt": "fltp",
                    "sample_rate": "48000",
                    "channels": 2,
                    "channel_layout": "stereo",
                    "bits_per_sample": 0,
                    "r_frame_rate": "0/0",
                    "avg_frame_rate": "0/0",
                    "time_base": "1/48000",
                    "start_pts": 0,
                    "start_time": "0.000000",
                    "duration_ts": 2639088,
                    "duration": "54.981000",
                    "bit_rate": "140495",
                    "nb_frames": "2749",
                    "disposition": {
                        "default": 1,
                        "dub": 0,
                        "original": 0,
                        "comment": 0,
                        "lyrics": 0,
                        "karaoke": 0,
                        "forced": 0,
                        "hearing_impaired": 0,
                        "visual_impaired": 0,
                        "clean_effects": 0,
                        "attached_pic": 0,
                        "timed_thumbnails": 0
                    },
                    "tags": {
                        "language": "eng",
                        "handler_name": "SoundHandler",
                        "vendor_id": "[0][0][0][0]"
                    }
                }
            ],
            "format": {
                "filename": "data/downloads/Pfh9l0guTqQ.mp4",
                "nb_streams": 2,
                "nb_programs": 0,
                "format_name": "mov,mp4,m4a,3gp,3g2,mj2",
                "format_long_name": "QuickTime / MOV",
                "start_time": "0.000000",
                "duration": "54.981000",
                "size": "6605010",
                "bit_rate": "961060",
                "probe_score": 100,
                "tags": {
                    "major_brand": "isom",
                    "minor_version": "512",
                    "compatible_brands": "isomiso2mp41",
                    "encoder": "Lavf58.76.100"
                }
            }
        },
        "other_info": {
            "video_views": 878,
            "channel_name": "United States Air Force",
            "video_title": "Veterans Day 2024",
            "avg_rating": null
        }
    }
}